<svg xmlns="http://www.w3.org/2000/svg" width="40" height="20" viewBox="0 0 40 20"><g><g><path d="M.274 9.37L9.363.33A.912.912 0 0 1 10.644.23a.9.9 0 0 1 0 1.373L3.11 9.108h35.981c.502 0 .91.405.91.904 0 .5-.408.904-.91.904H3.11l7.534 7.494a.9.9 0 0 1 .1 1.275.912.912 0 0 1-1.381 0l-9.089-9.04a.9.9 0 0 1 0-1.275z"/><path fill="#6e774a" d="M.274 9.37L9.363.33A.912.912 0 0 1 10.644.23a.9.9 0 0 1 0 1.373L3.11 9.108h35.981c.502 0 .91.405.91.904 0 .5-.408.904-.91.904H3.11l7.534 7.494a.9.9 0 0 1 .1 1.275.912.912 0 0 1-1.381 0l-9.089-9.04a.9.9 0 0 1 0-1.275z"/></g></g></svg>