<svg xmlns="http://www.w3.org/2000/svg" width="96" height="15" viewBox="0 0 96 15"><g><g><g><path d="M95.292 5.11l-4.407-.412a.761.761 0 0 1-.631-.463L88.676.451c-.253-.624-1.15-.624-1.402 0l-1.566 3.784a.745.745 0 0 1-.631.463l-4.407.412a.752.752 0 0 0-.429 1.31l3.32 2.886a.742.742 0 0 1 .24.737l-.997 4.045c-.151.638.543 1.162 1.124.825l3.674-2.136a.772.772 0 0 1 .77 0l3.675 2.136a.757.757 0 0 0 1.123-.825l-.984-4.045a.742.742 0 0 1 .24-.737l3.32-2.885c.48-.437.202-1.249-.454-1.311z"/><path fill="#6e774a" d="M95.292 5.11l-4.407-.412a.761.761 0 0 1-.631-.463L88.676.451c-.253-.624-1.15-.624-1.402 0l-1.566 3.784a.745.745 0 0 1-.631.463l-4.407.412a.752.752 0 0 0-.429 1.31l3.32 2.886a.742.742 0 0 1 .24.737l-.997 4.045c-.151.638.543 1.162 1.124.825l3.674-2.136a.772.772 0 0 1 .77 0l3.675 2.136a.757.757 0 0 0 1.123-.825l-.984-4.045a.742.742 0 0 1 .24-.737l3.32-2.885c.48-.437.202-1.249-.454-1.311z"/></g><g><path d="M75.292 5.11l-4.407-.412a.761.761 0 0 1-.631-.463L68.675.451c-.252-.624-1.149-.624-1.401 0l-1.566 3.784a.745.745 0 0 1-.631.463l-4.407.412a.752.752 0 0 0-.429 1.31l3.32 2.886a.742.742 0 0 1 .24.737l-.997 4.045c-.151.638.543 1.162 1.124.825l3.674-2.136a.772.772 0 0 1 .77 0l3.675 2.136a.757.757 0 0 0 1.123-.825l-.984-4.045a.742.742 0 0 1 .24-.737l3.32-2.885c.48-.437.202-1.249-.454-1.311z"/><path fill="#6e774a" d="M75.292 5.11l-4.407-.412a.761.761 0 0 1-.631-.463L68.675.451c-.252-.624-1.149-.624-1.401 0l-1.566 3.784a.745.745 0 0 1-.631.463l-4.407.412a.752.752 0 0 0-.429 1.31l3.32 2.886a.742.742 0 0 1 .24.737l-.997 4.045c-.151.638.543 1.162 1.124.825l3.674-2.136a.772.772 0 0 1 .77 0l3.675 2.136a.757.757 0 0 0 1.123-.825l-.984-4.045a.742.742 0 0 1 .24-.737l3.32-2.885c.48-.437.202-1.249-.454-1.311z"/></g><g><path d="M55.292 5.11l-4.407-.412a.761.761 0 0 1-.631-.463L48.675.451c-.252-.624-1.149-.624-1.401 0l-1.566 3.784a.745.745 0 0 1-.631.463l-4.407.412a.752.752 0 0 0-.429 1.31l3.32 2.886a.742.742 0 0 1 .24.737l-.997 4.045c-.151.638.543 1.162 1.124.825l3.674-2.136a.772.772 0 0 1 .77 0l3.675 2.136a.757.757 0 0 0 1.123-.825l-.984-4.045a.742.742 0 0 1 .24-.737l3.32-2.885c.48-.437.202-1.249-.454-1.311z"/><path fill="#6e774a" d="M55.292 5.11l-4.407-.412a.761.761 0 0 1-.631-.463L48.675.451c-.252-.624-1.149-.624-1.401 0l-1.566 3.784a.745.745 0 0 1-.631.463l-4.407.412a.752.752 0 0 0-.429 1.31l3.32 2.886a.742.742 0 0 1 .24.737l-.997 4.045c-.151.638.543 1.162 1.124.825l3.674-2.136a.772.772 0 0 1 .77 0l3.675 2.136a.757.757 0 0 0 1.123-.825l-.984-4.045a.742.742 0 0 1 .24-.737l3.32-2.885c.48-.437.202-1.249-.454-1.311z"/></g><g><path d="M35.292 5.11l-4.407-.412a.761.761 0 0 1-.631-.463L28.676.451c-.253-.624-1.15-.624-1.402 0l-1.566 3.784a.745.745 0 0 1-.631.463l-4.407.412a.752.752 0 0 0-.429 1.31l3.32 2.886a.742.742 0 0 1 .24.737l-.997 4.045c-.151.638.543 1.162 1.124.825l3.674-2.136a.772.772 0 0 1 .77 0l3.675 2.136a.757.757 0 0 0 1.123-.825l-.984-4.045a.742.742 0 0 1 .24-.737l3.32-2.885c.48-.437.202-1.249-.454-1.311z"/><path fill="#6e774a" d="M35.292 5.11l-4.407-.412a.761.761 0 0 1-.631-.463L28.676.451c-.253-.624-1.15-.624-1.402 0l-1.566 3.784a.745.745 0 0 1-.631.463l-4.407.412a.752.752 0 0 0-.429 1.31l3.32 2.886a.742.742 0 0 1 .24.737l-.997 4.045c-.151.638.543 1.162 1.124.825l3.674-2.136a.772.772 0 0 1 .77 0l3.675 2.136a.757.757 0 0 0 1.123-.825l-.984-4.045a.742.742 0 0 1 .24-.737l3.32-2.885c.48-.437.202-1.249-.454-1.311z"/></g><g><path d="M15.292 5.11l-4.407-.412a.761.761 0 0 1-.631-.463L8.675.451c-.252-.624-1.149-.624-1.401 0L5.708 4.236a.745.745 0 0 1-.631.463L.67 5.11a.752.752 0 0 0-.429 1.31l3.32 2.886a.742.742 0 0 1 .24.737l-.997 4.045c-.151.638.543 1.162 1.124.825l3.674-2.136a.772.772 0 0 1 .77 0l3.675 2.136a.757.757 0 0 0 1.123-.825l-.984-4.045a.742.742 0 0 1 .24-.737l3.32-2.885c.48-.437.202-1.249-.454-1.311z"/><path fill="#6e774a" d="M15.292 5.11l-4.407-.412a.761.761 0 0 1-.631-.463L8.675.451c-.252-.624-1.149-.624-1.401 0L5.708 4.236a.745.745 0 0 1-.631.463L.67 5.11a.752.752 0 0 0-.429 1.31l3.32 2.886a.742.742 0 0 1 .24.737l-.997 4.045c-.151.638.543 1.162 1.124.825l3.674-2.136a.772.772 0 0 1 .77 0l3.675 2.136a.757.757 0 0 0 1.123-.825l-.984-4.045a.742.742 0 0 1 .24-.737l3.32-2.885c.48-.437.202-1.249-.454-1.311z"/></g></g></g></svg>