<svg xmlns="http://www.w3.org/2000/svg" width="40" height="20" viewBox="0 0 40 20"><g><g><path d="M.274 9.37L9.363.33a.912.912 0 0 1 1.281-.098.9.9 0 0 1 0 1.372L3.11 9.108H39.09c.502 0 .91.404.91.904a.906.906 0 0 1-.91.904H3.11l7.534 7.494a.9.9 0 0 1 .1 1.275.912.912 0 0 1-1.381 0l-9.089-9.04a.9.9 0 0 1 0-1.275z"/><path fill="#fff" d="M.274 9.37L9.363.33a.912.912 0 0 1 1.281-.098.9.9 0 0 1 0 1.372L3.11 9.108H39.09c.502 0 .91.404.91.904a.906.906 0 0 1-.91.904H3.11l7.534 7.494a.9.9 0 0 1 .1 1.275.912.912 0 0 1-1.381 0l-9.089-9.04a.9.9 0 0 1 0-1.275z"/></g></g></svg>